<?xml version="1.0" standalone="no"?>
<!DOCTYPE svg PUBLIC "-//W3C//DTD SVG 20010904//EN"
 "http://www.w3.org/TR/2001/REC-SVG-20010904/DTD/svg10.dtd">
<svg version="1.0" xmlns="http://www.w3.org/2000/svg"
 width="500.000000pt" height="500.000000pt" viewBox="0 0 500.000000 500.000000"
 preserveAspectRatio="xMidYMid meet">
<metadata>
Created by potrace 1.14, written by Peter Selinger 2001-2017
</metadata>
<g transform="translate(0.000000,500.000000) scale(0.100000,-0.100000)"
fill="#000000" stroke="none">
<path d="M1677 4364 c-1 -1 -31 -5 -67 -8 -36 -4 -74 -9 -85 -11 -62 -13 -161
-38 -170 -43 -5 -4 -12 -7 -15 -7 -11 0 -105 -38 -110 -44 -3 -3 -18 -13 -35
-21 -39 -19 -135 -81 -155 -100 -9 -8 -40 -34 -68 -58 -55 -46 -163 -176 -200
-241 -35 -60 -50 -90 -71 -141 -12 -30 -26 -64 -31 -75 -10 -21 -29 -92 -37
-135 -21 -115 -24 -307 -6 -401 46 -245 156 -456 321 -615 63 -61 143 -125
182 -146 14 -7 44 -26 67 -41 24 -15 49 -27 56 -27 7 0 17 -4 22 -9 13 -11
147 -53 215 -67 108 -22 351 -19 464 5 22 5 57 12 76 15 44 7 66 12 109 25
l33 10 -6 -32 c-3 -18 -8 -43 -11 -57 -19 -95 -20 -101 -32 -175 -9 -63 -10
-305 -1 -365 27 -184 98 -352 209 -500 57 -75 159 -182 212 -223 16 -12 41
-32 55 -43 42 -33 192 -112 258 -134 131 -46 240 -64 384 -64 208 0 355 40
560 151 113 60 266 204 344 323 78 118 80 122 103 180 55 136 46 110 68 205
23 97 28 328 10 430 -30 169 -106 351 -197 470 -110 144 -267 276 -418 351
-78 39 -138 63 -144 57 -3 -4 -6 -1 -6 5 0 7 -3 11 -7 10 -5 -1 -33 4 -63 12
-64 16 -86 19 -160 26 -78 7 -231 10 -237 4 -2 -3 -21 -5 -41 -6 -21 0 -53 -4
-72 -8 -19 -3 -49 -8 -65 -9 -17 -2 -36 -7 -43 -11 -7 -4 -12 -5 -12 -2 0 2
-24 -2 -52 -10 -29 -7 -54 -14 -56 -14 -2 0 5 40 12 65 5 19 25 120 31 155 26
158 26 355 0 490 -9 48 -41 144 -67 200 -27 60 -94 178 -107 190 -3 3 -24 27
-45 54 -152 189 -384 332 -618 381 -83 18 -272 37 -281 29z m148 -398 c22 -3
52 -7 67 -11 43 -8 198 -76 198 -86 0 -5 5 -9 11 -9 15 0 92 -62 143 -115 61
-63 123 -165 152 -251 39 -113 42 -283 8 -450 -33 -161 -32 -160 -57 -239 -12
-38 -21 -72 -22 -75 0 -3 -6 -19 -13 -36 -10 -24 -23 -33 -55 -42 -23 -6 -100
-27 -172 -47 -71 -19 -148 -37 -170 -39 -22 -3 -40 -5 -40 -6 0 -5 -54 -10
-140 -13 -87 -4 -199 9 -255 29 -8 3 -16 5 -18 5 -6 -2 -112 55 -152 82 -67
46 -157 141 -203 214 -74 117 -108 248 -103 403 5 151 40 262 119 380 31 45
159 180 172 180 3 0 25 13 48 28 73 49 180 88 272 99 28 3 51 6 53 8 4 3 111
-3 157 -9z m1540 -1506 c180 -40 358 -161 461 -312 16 -24 33 -46 39 -50 5 -4
6 -8 2 -8 -5 0 0 -15 11 -32 96 -160 99 -446 6 -630 -76 -150 -196 -270 -339
-337 -72 -34 -126 -52 -136 -45 -5 3 -9 1 -9 -3 0 -28 -271 -23 -365 5 -279
86 -496 340 -530 623 -14 116 -5 241 26 379 6 25 12 54 15 65 2 11 18 70 35
131 l32 112 66 21 c36 12 75 23 86 26 11 2 35 8 53 14 17 5 32 7 32 4 0 -3 6
-1 13 4 6 6 19 11 27 11 8 0 26 3 40 6 52 13 77 17 135 22 33 4 61 8 63 9 8 7
193 -5 237 -15z"/>
</g>
</svg>
